<?xml version="1.0" standalone="no"?>
<!DOCTYPE svg PUBLIC "-//W3C//DTD SVG 20010904//EN"
 "http://www.w3.org/TR/2001/REC-SVG-20010904/DTD/svg10.dtd">
<svg version="1.0" xmlns="http://www.w3.org/2000/svg"
 width="1024.000000pt" height="1024.000000pt" viewBox="0 0 1024.000000 1024.000000"
 preserveAspectRatio="xMidYMid meet">

<g transform="translate(0.000000,1024.000000) scale(0.100000,-0.100000)"
fill="#F0F0F0" stroke="none">
<path d="M2950 9014 c-42 -18 -86 -59 -106 -96 -12 -23 -14 -214 -14 -1232 l0
-1204 -252 -5 c-171 -3 -265 -8 -290 -17 -58 -20 -130 -81 -164 -137 -40 -67
-54 -139 -54 -280 l0 -113 -32 -1 c-18 -1 -109 -2 -203 -2 l-170 -1 -5 174
c-6 195 -12 218 -76 266 -67 51 -179 40 -236 -23 -44 -48 -48 -79 -48 -367 l0
-274 28 -53 c22 -43 38 -59 81 -81 l53 -28 994 0 994 0 0 -135 0 -134 -227 0
c-126 0 -426 0 -669 -1 l-441 0 -7 -132 c-14 -285 -61 -597 -131 -879 -90
-357 -183 -604 -425 -1129 -180 -389 -164 -302 -168 -914 -2 -342 1 -543 8
-590 28 -184 153 -332 327 -386 65 -20 88 -20 3397 -20 3214 0 3334 1 3398 19
171 47 285 168 333 349 14 56 16 129 13 605 l-3 542 -26 75 c-14 41 -86 208
-159 370 -73 162 -161 367 -195 455 -201 514 -316 1019 -342 1498 l-8 137
-652 0 c-359 1 -660 3 -668 6 -12 5 -15 30 -15 135 l0 129 888 2 887 3 42 22
c23 13 53 37 66 55 42 55 49 100 45 279 -3 161 -4 167 -31 207 -15 23 -46 52
-70 64 -39 21 -55 23 -262 25 l-220 3 -10 47 c-6 27 -17 59 -24 71 -25 46 -85
104 -135 130 -50 26 -54 26 -313 30 l-263 4 0 1205 c0 1311 4 1228 -57 1285
-65 62 104 58 -2225 58 -1874 -1 -2127 -3 -2158 -16z m4090 -1718 l0 -1363
-57 -6 c-45 -5 -3444 -3 -3720 2 l-63 1 0 1365 0 1365 1920 0 1920 0 0 -1364z
m-1010 -2015 c0 -42 -37 -157 -73 -226 -20 -38 -64 -93 -122 -150 -156 -156
-335 -230 -613 -254 -241 -21 -499 30 -682 136 -98 57 -216 181 -268 280 -39
76 -85 218 -75 236 2 4 416 7 919 7 l914 0 0 -29z m-2756 -1032 c81 -41 134
-111 155 -204 21 -92 -15 -193 -94 -263 -143 -126 -362 -82 -451 91 -26 49
-31 167 -9 224 31 81 111 151 200 174 49 13 154 2 199 -22z m977 4 c24 -11 61
-38 83 -59 138 -139 105 -361 -68 -452 -44 -23 -63 -27 -141 -27 -105 0 -148
18 -208 84 -52 58 -69 97 -75 172 -10 139 59 244 191 291 64 23 154 19 218 -9z
m971 -1 c58 -25 113 -74 146 -131 24 -40 27 -57 27 -131 0 -75 -3 -91 -27
-132 -119 -202 -415 -199 -520 6 -13 26 -23 67 -26 112 -4 62 -1 79 22 130 30
66 55 95 105 127 80 49 188 57 273 19z m958 12 c73 -22 159 -107 185 -183 76
-228 -145 -434 -381 -354 -65 22 -137 95 -159 164 -25 75 -17 182 18 242 37
62 98 112 160 130 68 20 112 20 177 1z m1013 -13 c98 -44 171 -158 170 -266
-1 -148 -118 -264 -273 -273 -83 -5 -138 10 -192 51 -122 93 -153 248 -75 378
56 94 156 143 270 134 33 -3 78 -13 100 -24z m-4376 -899 c54 -28 106 -82 134
-140 18 -36 23 -65 24 -122 0 -66 -4 -82 -31 -130 -96 -170 -314 -202 -450
-66 -114 115 -114 287 1 402 29 29 69 58 95 67 62 23 171 17 227 -11z m996 -5
c162 -95 196 -315 69 -450 -99 -106 -285 -113 -396 -16 -65 57 -88 107 -94
199 -6 98 20 162 90 225 65 59 114 75 209 72 61 -3 85 -9 122 -30z m920 17
c179 -61 246 -306 123 -450 -75 -88 -196 -123 -312 -89 -81 23 -156 98 -180
181 -43 148 34 310 170 358 55 19 142 20 199 0z m976 -3 c76 -29 117 -66 153
-138 73 -149 22 -307 -125 -385 -35 -19 -58 -23 -132 -23 -81 0 -95 3 -143 29
-94 53 -144 137 -145 246 -1 72 12 115 55 175 72 102 215 143 337 96z m962 2
c74 -24 149 -99 174 -172 21 -64 17 -169 -9 -218 -92 -179 -335 -218 -468 -75
-59 63 -82 131 -76 221 6 76 25 120 77 174 78 83 185 108 302 70z m981 -3 c61
-23 124 -82 159 -150 31 -60 32 -164 2 -232 -78 -173 -314 -223 -458 -96 -66
59 -99 127 -98 208 1 207 201 343 395 270z m-503 -950 c137 -69 147 -252 20
-337 l-43 -28 -1980 -3 c-1457 -2 -1992 0 -2021 8 -135 39 -182 238 -78 332
55 50 -58 47 2076 48 1954 0 1988 0 2026 -20z"/>
<path d="M3715 8201 c-126 -72 -133 -249 -13 -328 l42 -28 1339 -3 c917 -1
1351 1 1378 8 84 23 148 116 136 200 -9 67 -50 125 -109 154 l-52 26 -1335 0
-1336 0 -50 -29z"/>
<path d="M3725 7461 c-143 -65 -146 -255 -5 -332 21 -12 204 -15 1045 -17 561
-2 1043 0 1072 3 192 23 233 266 58 346 -38 18 -90 19 -1085 19 -992 0 -1047
-1 -1085 -19z"/>
<path d="M3730 6744 c-52 -23 -88 -61 -106 -116 -13 -41 -14 -56 -4 -100 15
-62 67 -118 126 -136 31 -9 209 -12 701 -12 l659 0 44 23 c147 75 146 262 -2
338 -36 18 -67 19 -710 19 -579 -1 -678 -3 -708 -16z"/>
</g>
</svg>
